PathFileType	4	(X/Y/Z)	C:/Users/beibeiliu/ov580/test_trc/User2\sequence.7_training_dense_right.trc
DataRate	CameraRate	NumFrames	NumMarkers	Units	OrigDataRate	OrigDataStartFrame	OrigNumFrames
120	120	12	19	mm	120	85	113
Frame#	Time	ThumbCMC			ThumbMCP			ThumbIP			ThumbTip			IndexMCP			IndexPIP			IndexTip			MiddleMCP			MiddlePIP			MiddleTip			RingMCP			RingPIP			RingTip			PinkyMCP			PinkyPIP			PinkyTip			BackHand1			BackHand2			BackHand3	
		X0	Y0	Z0	X1	Y1	Z1	X2	Y2	Z2	X3	Y3	Z3	X4	Y4	Z4	X5	Y5	Z5	X6	Y6	Z6	X7	Y7	Z7	X8	Y8	Z8	X9	Y9	Z9	X10	Y10	Z10	X11	Y11	Z11	X12	Y12	Z12	X13	Y13	Z13	X14	Y14	Z14	X15	Y15	Z15	X16	Y16	Z16	X17	Y17	Z17	X18	Y18	Z18	
84	0.7	48.1141	59.544	1.99286	34.8315	87.5289	-12.6201	10.9121	108.945	-31.0655	-14.8204	98.3976	-36.4039	14.0883	48.4495	-75.521	-12.6839	60.2077	-92.5677	-36.878	79.4803	-76.6298	-5.02175	24.8816	-72.4446	-37.6258	40.5546	-90.1442	-58.9754	62.9715	-64.8071	-22.7335	10.5693	-62.2978	-52.5493	19.6461	-70.177	-63.1446	50.5847	-54.923	-34.8849	-3.58672	-31.1281	-66.8588	7.2658	-40.8135	-76.4725	36.0406	-37.3407	15.5887	-0.753888	-19.6276	33.5337	-10.441	7.74145	42.067	19.1633	-15.7246	
85	0.708333	68.6858	65.2385	6.55908	62.3475	96.0698	-6.68962	39.8858	116.017	-25.2044	13.0065	115.907	-34.3451	33.8192	57.1045	-66.6012	13.0813	74.222	-88.1981	-9.52537	98.426	-71.9706	11.5029	39.351	-70.6855	-15.6484	54.8098	-85.0019	-33.2802	87.3553	-61.8025	-11.5627	24.9266	-53.8167	-31.4818	42.7493	-66.7726	-44.4432	73.0474	-48.2405	-25.5721	18.1502	-28.162	-50.7184	33.6626	-37.1104	-55.0688	66.6167	-32.1982	27.8268	10.3068	-8.75479	43.3075	-0.306436	19.5654	58.7275	24.3362	-4.6297	
86	0.716667	87.7548	72.159	14.8039	85.5427	104.109	3.32354	66.2737	128.821	-19.0989	37.8724	129.955	-27.1899	52.452	66.5295	-61.8227	36.2225	84.1366	-79.9604	13.4807	112.304	-63.0841	27.4203	48.8251	-60.8177	2.45117	71.7727	-78.9229	-8.31789	104.751	-56.5577	3.54671	40.9457	-48.7619	-13.7937	63.8043	-61.474	-18.0572	95.387	-44.3489	-10.1014	36.3751	-21.4761	-32.4132	56.7178	-34.9038	-35.6512	85.5722	-29.4516	36.8469	22.3696	-2.03798	52.5194	6.99001	25.1045	71.8893	32.2667	-0.399219	
87	0.725	100.82	70.1301	21.0446	99.5425	102.997	3.22179	85.5439	131.044	-15.5163	54.6354	131.455	-24.708	63.8075	68.2954	-57.625	50.9964	88.7372	-77.0531	37.8524	119.364	-63.5459	38.5382	56.2983	-59.744	19.9941	81.1569	-76.3982	7.39861	112.184	-55.635	16.1518	50.3094	-45.3759	-3.20277	73.233	-57.4148	-3.27477	104.749	-43.0022	-2.04162	46.6579	-17.5935	-19.4783	70.1837	-30.9263	-20.0428	101.62	-22.1778	44.1476	25.1821	2.97768	57.0627	14.3676	28.0073	80.6054	34.0037	6.86796	
88	0.733333	111.176	59.0356	16.9713	116.834	92.7067	-1.05609	102.558	117.748	-19.5825	72.9637	122.341	-27.3216	71.5067	60.1245	-60.5763	58.2413	84.2341	-82.1565	52.5725	115.301	-64.7084	42.066	49.6561	-61.7873	26.8017	75.1046	-80.0774	23.6529	112.365	-61.6959	24.3321	50.9715	-49.9327	8.05306	75.8778	-62.1201	8.58743	108.287	-44.5808	8.16736	48.7972	-21.5027	-11.2756	75.5069	-34.2727	-3.42855	107.251	-26.6266	49.1301	26.2153	-3.24666	61.414	10.831	23.1292	86.4812	26.229	0.614465	
89	0.741667	118.529	45.9343	2.11505	127.265	75.4885	-12.2689	118.016	103.235	-35.3613	90.6363	109.7	-40.5247	82.0198	45.2467	-70.9415	74.898	66.8063	-93.5653	63.1752	100.061	-76.4611	51.6877	36.6521	-69.1758	38.6895	64.2178	-92.3325	40.0046	100.211	-74.4305	32.1765	39.3151	-59.1562	17.1714	61.9257	-72.2157	24.7931	95.9983	-62.8721	13.3163	41.7019	-30.329	1.39886	65.6967	-46.8223	7.71445	96.3854	-42.5138	53.0856	14.6087	-6.85442	62.3046	2.03547	18.431	92.8196	13.5181	-9.82962	
90	0.75	131.678	37.635	-3.47796	138.724	66.7126	-25.5506	128.594	91.0766	-51.2996	99.8916	97.1446	-60.622	100.207	26.7838	-82.5981	87.1163	45.2773	-104.416	80.7645	78.3292	-93.5043	68.7833	16.6937	-78.2896	56.5814	40.5997	-105.968	52.4181	76.8755	-94.2803	46.1165	18.2732	-66.9361	33.7817	42.641	-89.2216	37.3488	76.4354	-79.5017	29.1843	25.1905	-43.026	11.5914	47.5747	-61.9612	20.3886	75.3918	-62.1219	67.8303	3.82664	-19.2274	79.3834	-6.66647	14.864	106.958	2.48078	-15.3107	
91	0.758333	137.251	38.4263	-9.33487	141.314	67.791	-34.0495	130.207	87.2038	-55.8849	104.877	88.5156	-75.1912	117.286	12.1317	-86.482	106.565	29.6238	-114.285	91.7565	58.6442	-104.577	92.8788	-2.49462	-86.7831	76.4396	16.903	-117.099	66.0088	51.9611	-107.513	71.061	-5.63355	-77.7985	52.6105	11.3184	-102.059	51.5169	44.1985	-98.4505	46.2382	-1.30053	-52.4819	29.9237	16.125	-78.6529	30.6271	44.0347	-81.3598	86.8861	-10.4852	-24.9757	94.9041	-15.013	9.77769	124.845	-0.511761	-14.516	
92	0.766667	142.274	48.1323	-13.4996	134.373	71.3474	-35.7099	124.533	90.2129	-63.5731	101.43	79.8368	-80.6228	140.463	12.7174	-87.2307	126.615	22.0698	-117.905	101.558	45.284	-111.813	120.788	-10.7967	-87.8995	104.342	1.05269	-120.634	78.9271	28.2347	-115.468	100.233	-18.5452	-80.1968	83.664	-14.4155	-105.894	64.9959	22.1263	-106.173	72.1327	-22.6356	-61.3619	57.0518	-15.1092	-85.4191	46.9935	16.2841	-93.7469	109.497	-16.2401	-24.7681	114.208	-16.8353	10.3941	140.306	5.77449	-14.262	
93	0.775	144.002	56.7695	-9.20679	130.79	81.0574	-32.3864	116.931	89.9658	-66.0855	99.6904	78.6151	-86.4892	160.812	23.7112	-82.4288	150.679	29.8366	-114.102	115.052	42.4748	-112.075	151.939	-2.10699	-83.5577	131.585	-0.559199	-119.759	102.117	24.0073	-116.34	132.796	-19.4687	-79.8147	119.458	-18.3055	-106.266	96.6882	7.28775	-112.001	106.725	-29.219	-62.7295	89.9094	-29.0883	-90.2455	72.8693	-2.16595	-98.2747	134.355	-15.8969	-24.7366	137.609	-9.21267	12.6474	158.948	14.9655	-13.1141	
94	0.783333	139.425	62.9947	-1.33542	121.344	82.707	-26.3132	107.228	89.4323	-62.3858	99.1223	68.2315	-84.6162	175.048	41.9386	-77.8491	163.904	46.0405	-109.807	130.732	51.6776	-111.768	177.277	15.1422	-80.7886	160.808	14.9488	-116.402	122.67	25.1579	-114.48	166.076	-8.41598	-77.2965	153.333	-10.0824	-105.323	121.328	4.25719	-111.311	144.1	-22.3603	-61.6474	132.748	-26.5707	-93.0233	104.959	-8.22762	-102.43	159.155	-5.32151	-21.6772	158.131	-4.13635	9.74739	170.603	32.3891	-3.2649	
95	0.791667	128.584	65.9014	0.113266	105.853	76.7466	-24.8011	92.847	77.5796	-62.2311	95.978	57.6792	-80.976	174.721	67.7755	-67.8999	167.071	68.0329	-102.574	135.287	58.172	-108.671	188.943	38.4353	-72.7302	179.541	39.5551	-110.993	141.314	29.5161	-114.884	187.47	16.6026	-70.8419	180.317	12.7008	-102.161	144.844	11.9622	-109.602	175.625	-8.2504	-61.2977	166.686	-14.8216	-94.0416	138.769	-9.4661	-102.469	178.349	13.1456	-16.7429	174.273	9.38725	14.5566	171.448	44.6897	-2.23005	
